<svg xmlns="http://www.w3.org/2000/svg" viewBox="0 0 500 500" fill="#1a1a1a">
  <!-- Play button shape -->
  <path d="M450 230c30 20 30 60 0 80L120 450c-35 22-80-5-80-50V100c0-45 45-72 80-50l330 180z" opacity="0.15"/>
  
  <!-- W letter inside -->
  <path d="M140 180c8-5 18 0 22 10l45 120c3 8 15 8 18 0l30-80c3-8 15-8 18 0l30 80c3 8 15 8 18 0l45-120c4-10 14-15 22-10 10 6 12 18 6 28l-70 160c-5 12-20 18-32 12-6-3-10-8-12-15l-25-65c-3-8-15-8-18 0l-25 65c-2 7-6 12-12 15-12 6-27 0-32-12l-70-160c-6-10-4-22 6-28z" fill="#0a0a0a" opacity="0.2"/>
  
  <!-- Dot on top -->
  <circle cx="430" cy="70" r="35" opacity="0.15"/>
</svg>
